<svg width="8" height="8" viewBox="0 0 8 8" fill="none" xmlns="http://www.w3.org/2000/svg">
<g clip-path="url(#clip0_1_423)">
<path d="M3.97526 2.14366C3.0496 2.14366 2.30296 2.88645 2.30296 3.80735C2.30296 4.72824 3.0496 5.47103 3.97526 5.47103C4.90093 5.47103 5.64757 4.72824 5.64757 3.80735C5.64757 2.88645 4.90093 2.14366 3.97526 2.14366ZM3.97526 4.88896C3.37708 4.88896 2.88805 4.4039 2.88805 3.80735C2.88805 3.21079 3.37562 2.72573 3.97526 2.72573C4.57491 2.72573 5.06248 3.21079 5.06248 3.80735C5.06248 4.4039 4.57345 4.88896 3.97526 4.88896ZM6.10603 2.07561C6.10603 2.29135 5.93138 2.46365 5.71598 2.46365C5.49911 2.46365 5.32592 2.2899 5.32592 2.07561C5.32592 1.86131 5.50057 1.68756 5.71598 1.68756C5.93138 1.68756 6.10603 1.86131 6.10603 2.07561ZM7.21363 2.46945C7.18888 1.94963 7.06954 1.48919 6.68676 1.10983C6.30543 0.730466 5.8426 0.611734 5.32009 0.585671C4.78158 0.555265 3.16749 0.555265 2.62898 0.585671C2.10793 0.610286 1.6451 0.729018 1.26232 1.10838C0.879537 1.48774 0.761646 1.94819 0.735448 2.468C0.704883 3.00374 0.704883 4.60951 0.735448 5.14525C0.76019 5.66506 0.879537 6.1255 1.26232 6.50486C1.6451 6.88423 2.10648 7.00296 2.62898 7.02902C3.16749 7.05943 4.78158 7.05943 5.32009 7.02902C5.8426 7.00441 6.30543 6.88567 6.68676 6.50486C7.06808 6.1255 7.18743 5.66506 7.21363 5.14525C7.24419 4.60951 7.24419 3.00519 7.21363 2.46945ZM6.51792 5.72008C6.4044 6.00388 6.18463 6.22252 5.89791 6.3369C5.46855 6.50631 4.44974 6.46722 3.97526 6.46722C3.50079 6.46722 2.48052 6.50486 2.05262 6.3369C1.76736 6.22396 1.54759 6.00532 1.43261 5.72008C1.26232 5.29294 1.30162 4.27938 1.30162 3.80735C1.30162 3.33532 1.26377 2.32031 1.43261 1.89461C1.54613 1.61082 1.7659 1.39218 2.05262 1.27779C2.48198 1.10838 3.50079 1.14747 3.97526 1.14747C4.44974 1.14747 5.47001 1.10983 5.89791 1.27779C6.18317 1.39073 6.40294 1.60937 6.51792 1.89461C6.68821 2.32176 6.64891 3.33532 6.64891 3.80735C6.64891 4.27938 6.68821 5.29438 6.51792 5.72008Z" fill="white"/>
</g>
<defs>
<clipPath id="clip0_1_423">
<rect width="6.58976" height="7.41348" fill="white" transform="translate(0.731018 0.101807)"/>
</clipPath>
</defs>
</svg>
